<svg xmlns="http://www.w3.org/2000/svg" width="69.008" height="58.957" viewBox="0 0 69.008 58.957">
  <g id="Group_184" data-name="Group 184" transform="translate(-43.492 -263.5)">
    <path id="Polygon_5" data-name="Polygon 5" d="M8.5,0,17,9H0Z" transform="matrix(-0.819, 0.574, -0.574, -0.819, 70.337, 276.018)" fill="#fff"/>
    <g id="Group_61" data-name="Group 61" transform="translate(43.757 263.39)">
      <g id="Group_60" data-name="Group 60" transform="translate(0 1.796)">
        <g id="Group_59" data-name="Group 59" transform="translate(0.243 -0.39)">
          <rect id="Rectangle_21" data-name="Rectangle 21" width="43" height="23" transform="translate(22 0.204)" fill="#76d5db"/>
          <rect id="Rectangle_20" data-name="Rectangle 20" width="65" height="40" transform="translate(0 16.204)" fill="#76d5db"/>
        </g>
      </g>
      <g id="Group_57" data-name="Group 57" transform="translate(0.252 0.238)">
        <g id="Group_52" data-name="Group 52">
          <g id="Group_185" data-name="Group 185">
            <line id="Line_5" data-name="Line 5" x2="48" transform="translate(20.49 2.872)" fill="none" stroke="#00a2b8" stroke-width="6"/>
            <line id="Line_7" data-name="Line 7" x2="69" transform="translate(-0.51 55.829)" fill="none" stroke="#00a2b8" stroke-width="6"/>
            <line id="Line_8" data-name="Line 8" y2="42.897" transform="translate(2.512 15.165)" fill="none" stroke="#00a2b8" stroke-width="6"/>
            <path id="Path_11" data-name="Path 11" d="M.16.211V58.329" transform="translate(65.319)" fill="none" stroke="#00a2b8" stroke-width="6"/>
            <path id="Path_13" data-name="Path 13" d="M0,0H22.978" transform="translate(2.512 18.062)" fill="none" stroke="#00a2b8" stroke-width="6"/>
            <line id="Line_11" data-name="Line 11" x1="0.12" y2="18.268" transform="translate(22.49 2.604)" fill="none" stroke="#00a2b8" stroke-width="6"/>
            <path id="Path_12" data-name="Path 12" d="M1.232,14.9,22.246-.175" transform="translate(0 2.604)" fill="none" stroke="#00a2b8" stroke-width="6"/>
          </g>
        </g>
        <text id="all" transform="translate(21.99 41.372)" fill="#fff" font-size="27" font-family="HelveticaNeue-Medium, Helvetica Neue" font-weight="500"><tspan x="0" y="0">all</tspan></text>
      </g>
    </g>
  </g>
</svg>
