<svg xmlns="http://www.w3.org/2000/svg" width="70.926" height="49.339" viewBox="0 0 70.926 49.339">
  <g id="Group_62" data-name="Group 62" transform="translate(-0.415 -0.364)">
    <path id="Path_9" data-name="Path 9" d="M0,0H68.162V47.373H0Z" transform="translate(2.493 1.724)" fill="#76d5db"/>
    <g id="email-envelope-outline" transform="translate(0.415 0.364)">
      <path id="Path_2" data-name="Path 2" d="M70.155,59.111H.769a.77.77,0,0,0-.769.77v47.8a.77.77,0,0,0,.769.77H70.155a.772.772,0,0,0,.771-.77v-47.8A.772.772,0,0,0,70.155,59.111ZM58.421,65.279,35.463,82.115,12.505,65.279Zm6.338,37H6.168v-34L35.007,89.429a.774.774,0,0,0,.914,0L64.76,68.281v34Z" transform="translate(0 -59.111)" fill="#00a2b8"/>
    </g>
    <text id="all" transform="translate(22 35)" fill="#fff" font-size="27" font-family="HelveticaNeue-Medium, Helvetica Neue" font-weight="500"><tspan x="0" y="0">all</tspan></text>
  </g>
</svg>
