<svg xmlns="http://www.w3.org/2000/svg" xmlns:xlink="http://www.w3.org/1999/xlink" width="81" height="1591" viewBox="0 0 81 1591">
  <defs>
    <clipPath id="clip-New_Article_1">
      <rect width="81" height="1591"/>
    </clipPath>
  </defs>
  <g id="New_Article_1" data-name="New Article – 1" clip-path="url(#clip-New_Article_1)">
    <g id="Group_188" data-name="Group 188" transform="translate(-41.415 -157.497)">
      <rect id="Rectangle_27" data-name="Rectangle 27" width="63" height="41" transform="translate(47 362)" fill="#fff"/>
      <g id="Group_49" data-name="Group 49" transform="translate(41.415 357.497)">
        <g id="email-envelope-outline" transform="translate(0 0)">
          <path id="Path_2" data-name="Path 2" d="M70.155,59.111H.769a.77.77,0,0,0-.769.77v47.8a.77.77,0,0,0,.769.77H70.155a.772.772,0,0,0,.771-.77v-47.8A.772.772,0,0,0,70.155,59.111ZM58.421,65.279,35.463,82.115,12.505,65.279Zm6.338,37H6.168v-34L35.007,89.429a.774.774,0,0,0,.914,0L64.76,68.281v34Z" transform="translate(0 -59.111)" fill="#00a2b8"/>
        </g>
        <g id="Group_46" data-name="Group 46" transform="translate(47.456 27.31)">
          <line id="Line_3" data-name="Line 3" y2="33.04" transform="translate(17.044 0)" fill="none" stroke="#ecbf00" stroke-width="8"/>
          <line id="Line_4" data-name="Line 4" x2="34.129" transform="translate(0 16.976)" fill="none" stroke="#ecbf00" stroke-width="8"/>
        </g>
      </g>
    </g>
    <g id="Group_184" data-name="Group 184" transform="translate(-43.5 -163.839)">
      <path id="Polygon_5" data-name="Polygon 5" d="M8.5,0,17,9H0Z" transform="matrix(-0.819, 0.574, -0.574, -0.819, 70.337, 276.018)" fill="#24cdd8"/>
      <g id="Group_61" data-name="Group 61" transform="translate(43.757 263.39)">
        <g id="Group_60" data-name="Group 60" transform="translate(0 1.796)">
          <g id="Group_59" data-name="Group 59" transform="translate(0.243 -0.39)">
            <rect id="Rectangle_21" data-name="Rectangle 21" width="43" height="23" transform="translate(22 0.204)" fill="#76d5db"/>
            <rect id="Rectangle_20" data-name="Rectangle 20" width="65" height="40" transform="translate(0 16.204)" fill="#76d5db"/>
          </g>
        </g>
        <g id="Group_57" data-name="Group 57" transform="translate(0.252 0.238)">
          <g id="Group_52" data-name="Group 52">
            <g id="Group_185" data-name="Group 185">
              <line id="Line_5" data-name="Line 5" x2="48" transform="translate(20.49 2.872)" fill="none" stroke="#00a2b8" stroke-width="6"/>
              <line id="Line_7" data-name="Line 7" x2="69" transform="translate(-0.51 55.829)" fill="none" stroke="#00a2b8" stroke-width="6"/>
              <line id="Line_8" data-name="Line 8" y2="42.897" transform="translate(2.512 15.165)" fill="none" stroke="#00a2b8" stroke-width="6"/>
              <path id="Path_11" data-name="Path 11" d="M.16.211V58.329" transform="translate(65.319)" fill="none" stroke="#00a2b8" stroke-width="6"/>
              <path id="Path_13" data-name="Path 13" d="M0,0H22.978" transform="translate(2.512 18.062)" fill="none" stroke="#00a2b8" stroke-width="6"/>
              <line id="Line_11" data-name="Line 11" x1="0.12" y2="18.268" transform="translate(22.49 2.604)" fill="none" stroke="#00a2b8" stroke-width="6"/>
              <path id="Path_12" data-name="Path 12" d="M1.232,14.9,22.246-.175" transform="translate(0 2.604)" fill="none" stroke="#00a2b8" stroke-width="6"/>
            </g>
          </g>
          <text id="all" transform="translate(21.99 41.372)" fill="#fff" font-size="27" font-family="HelveticaNeue-Medium, Helvetica Neue" font-weight="500"><tspan x="0" y="0">all</tspan></text>
        </g>
      </g>
    </g>
    <g id="Group_62" data-name="Group 62" transform="translate(-0.415 -0.364)">
      <path id="Path_9" data-name="Path 9" d="M0,0H68.162V47.373H0Z" transform="translate(2.493 1.724)" fill="#76d5db"/>
      <g id="email-envelope-outline-2" data-name="email-envelope-outline" transform="translate(0.415 0.364)">
        <path id="Path_2-2" data-name="Path 2" d="M70.155,59.111H.769a.77.77,0,0,0-.769.77v47.8a.77.77,0,0,0,.769.77H70.155a.772.772,0,0,0,.771-.77v-47.8A.772.772,0,0,0,70.155,59.111ZM58.421,65.279,35.463,82.115,12.505,65.279Zm6.338,37H6.168v-34L35.007,89.429a.774.774,0,0,0,.914,0L64.76,68.281v34Z" transform="translate(0 -59.111)" fill="#00a2b8"/>
      </g>
      <text id="all-2" data-name="all" transform="translate(22 35)" fill="#fff" font-size="27" font-family="HelveticaNeue-Medium, Helvetica Neue" font-weight="500"><tspan x="0" y="0">all</tspan></text>
    </g>
    <g id="Group_189" data-name="Group 189" transform="translate(-41.5 -151.839)">
      <path id="Path_14" data-name="Path 14" d="M45.385,469.638l19.255-15.424h42.839V507.57H45.385Z" fill="#fff"/>
      <g id="Group_187" data-name="Group 187" transform="translate(1)">
        <g id="Group_186" data-name="Group 186" transform="translate(41.01 451.628)">
          <line id="Line_5-2" data-name="Line 5" x2="48" transform="translate(20.49 2.872)" fill="none" stroke="#00a2b8" stroke-width="6"/>
          <line id="Line_7-2" data-name="Line 7" x2="69" transform="translate(-0.51 55.829)" fill="none" stroke="#00a2b8" stroke-width="6"/>
          <line id="Line_8-2" data-name="Line 8" y2="42.897" transform="translate(2.512 15.165)" fill="none" stroke="#00a2b8" stroke-width="6"/>
          <path id="Path_11-2" data-name="Path 11" d="M.16.211V58.329" transform="translate(65.319)" fill="none" stroke="#00a2b8" stroke-width="6"/>
          <path id="Path_13-2" data-name="Path 13" d="M0,0H22.978" transform="translate(2.512 18.062)" fill="none" stroke="#00a2b8" stroke-width="6"/>
          <line id="Line_11-2" data-name="Line 11" x1="0.12" y2="18.268" transform="translate(22.49 2.604)" fill="none" stroke="#00a2b8" stroke-width="6"/>
          <path id="Path_12-2" data-name="Path 12" d="M1.232,14.9,22.246-.175" transform="translate(0 2.604)" fill="none" stroke="#00a2b8" stroke-width="6"/>
        </g>
        <g id="Group_53" data-name="Group 53" transform="translate(40.252 450.87)">
          <g id="Group_51" data-name="Group 51" transform="translate(47.413 37.67)">
            <line id="Line_3-2" data-name="Line 3" y2="33.04" transform="translate(17.044 0)" fill="none" stroke="#ecbf00" stroke-width="8"/>
            <line id="Line_4-2" data-name="Line 4" x2="34.129" transform="translate(0 16.976)" fill="none" stroke="#ecbf00" stroke-width="8"/>
          </g>
        </g>
      </g>
    </g>
    <g id="Group_191" data-name="Group 191" transform="translate(-43.5 236.161)">
      <path id="Polygon_5-2" data-name="Polygon 5" d="M8.5,0,17,9H0Z" transform="matrix(-0.819, 0.574, -0.574, -0.819, 70.337, 276.018)" fill="#e3348e"/>
      <g id="Group_61-2" data-name="Group 61" transform="translate(43.757 263.39)">
        <g id="Group_60-2" data-name="Group 60" transform="translate(0 1.796)">
          <g id="Group_59-2" data-name="Group 59" transform="translate(0.243 -0.39)">
            <rect id="Rectangle_21-2" data-name="Rectangle 21" width="43" height="23" transform="translate(22 0.204)" fill="#e29cc0"/>
            <rect id="Rectangle_20-2" data-name="Rectangle 20" width="65" height="40" transform="translate(0 16.204)" fill="#e29cc0"/>
          </g>
        </g>
        <g id="Group_57-2" data-name="Group 57" transform="translate(0.252 0.238)">
          <g id="Group_52-2" data-name="Group 52">
            <g id="Group_185-2" data-name="Group 185">
              <line id="Line_5-3" data-name="Line 5" x2="48" transform="translate(20.49 2.872)" fill="none" stroke="#d2006b" stroke-width="6"/>
              <line id="Line_7-3" data-name="Line 7" x2="69" transform="translate(-0.51 55.829)" fill="none" stroke="#d2006b" stroke-width="6"/>
              <line id="Line_8-3" data-name="Line 8" y2="42.897" transform="translate(2.512 15.165)" fill="none" stroke="#d2006b" stroke-width="6"/>
              <path id="Path_11-3" data-name="Path 11" d="M.16.211V58.329" transform="translate(65.319)" fill="none" stroke="#d2006b" stroke-width="6"/>
              <path id="Path_13-3" data-name="Path 13" d="M0,0H22.978" transform="translate(2.512 18.062)" fill="none" stroke="#d2006b" stroke-width="6"/>
              <line id="Line_11-3" data-name="Line 11" x1="0.12" y2="18.268" transform="translate(22.49 2.604)" fill="none" stroke="#d2006b" stroke-width="6"/>
              <path id="Path_12-3" data-name="Path 12" d="M1.232,14.9,22.246-.175" transform="translate(0 2.604)" fill="none" stroke="#d2006b" stroke-width="6"/>
            </g>
          </g>
          <text id="all-3" data-name="all" transform="translate(21.99 41.372)" fill="#fff" font-size="27" font-family="HelveticaNeue-Medium, Helvetica Neue" font-weight="500"><tspan x="0" y="0">all</tspan></text>
        </g>
      </g>
    </g>
    <g id="Group_192" data-name="Group 192" transform="translate(-0.415 399.636)">
      <path id="Path_9-2" data-name="Path 9" d="M0,0H68.162V47.373H0Z" transform="translate(2.493 1.724)" fill="#e29cc0"/>
      <g id="email-envelope-outline-3" data-name="email-envelope-outline" transform="translate(0.415 0.364)">
        <path id="Path_2-3" data-name="Path 2" d="M70.155,59.111H.769a.77.77,0,0,0-.769.77v47.8a.77.77,0,0,0,.769.77H70.155a.772.772,0,0,0,.771-.77v-47.8A.772.772,0,0,0,70.155,59.111ZM58.421,65.279,35.463,82.115,12.505,65.279Zm6.338,37H6.168v-34L35.007,89.429a.774.774,0,0,0,.914,0L64.76,68.281v34Z" transform="translate(0 -59.111)" fill="#d2006b"/>
      </g>
      <text id="all-4" data-name="all" transform="translate(22 35)" fill="#fff" font-size="27" font-family="HelveticaNeue-Medium, Helvetica Neue" font-weight="500"><tspan x="0" y="0">all</tspan></text>
    </g>
    <g id="Group_190" data-name="Group 190" transform="translate(-41.415 242.503)">
      <rect id="Rectangle_27-2" data-name="Rectangle 27" width="63" height="41" transform="translate(47 362)" fill="#fff"/>
      <g id="Group_49-2" data-name="Group 49" transform="translate(41.415 357.497)">
        <g id="email-envelope-outline-4" data-name="email-envelope-outline" transform="translate(0 0)">
          <path id="Path_2-4" data-name="Path 2" d="M70.155,59.111H.769a.77.77,0,0,0-.769.77v47.8a.77.77,0,0,0,.769.77H70.155a.772.772,0,0,0,.771-.77v-47.8A.772.772,0,0,0,70.155,59.111ZM58.421,65.279,35.463,82.115,12.505,65.279Zm6.338,37H6.168v-34L35.007,89.429a.774.774,0,0,0,.914,0L64.76,68.281v34Z" transform="translate(0 -59.111)" fill="#d2006b"/>
        </g>
        <g id="Group_46-2" data-name="Group 46" transform="translate(47.456 27.31)">
          <line id="Line_3-3" data-name="Line 3" y2="33.04" transform="translate(17.044 0)" fill="none" stroke="#ecbf00" stroke-width="8"/>
          <line id="Line_4-3" data-name="Line 4" x2="34.129" transform="translate(0 16.976)" fill="none" stroke="#ecbf00" stroke-width="8"/>
        </g>
      </g>
    </g>
    <g id="Group_194" data-name="Group 194" transform="translate(-41.415 642.503)">
      <rect id="Rectangle_27-3" data-name="Rectangle 27" width="63" height="41" transform="translate(47 362)" fill="#101520"/>
      <g id="Group_49-3" data-name="Group 49" transform="translate(41.415 357.497)">
        <g id="email-envelope-outline-5" data-name="email-envelope-outline" transform="translate(0 0)">
          <path id="Path_2-5" data-name="Path 2" d="M70.155,59.111H.769a.77.77,0,0,0-.769.77v47.8a.77.77,0,0,0,.769.77H70.155a.772.772,0,0,0,.771-.77v-47.8A.772.772,0,0,0,70.155,59.111ZM58.421,65.279,35.463,82.115,12.505,65.279Zm6.338,37H6.168v-34L35.007,89.429a.774.774,0,0,0,.914,0L64.76,68.281v34Z" transform="translate(0 -59.111)" fill="#c79e63"/>
        </g>
        <g id="Group_46-3" data-name="Group 46" transform="translate(47.456 27.31)">
          <line id="Line_3-4" data-name="Line 3" y2="33.04" transform="translate(17.044 0)" fill="none" stroke="#ecbf00" stroke-width="8"/>
          <line id="Line_4-4" data-name="Line 4" x2="34.129" transform="translate(0 16.976)" fill="none" stroke="#ecbf00" stroke-width="8"/>
        </g>
      </g>
    </g>
    <g id="Group_195" data-name="Group 195" transform="translate(-43.5 636.161)">
      <path id="Polygon_5-3" data-name="Polygon 5" d="M8.5,0,17,9H0Z" transform="matrix(-0.819, 0.574, -0.574, -0.819, 70.337, 276.018)" fill="#573300"/>
      <g id="Group_61-3" data-name="Group 61" transform="translate(43.757 263.39)">
        <g id="Group_60-3" data-name="Group 60" transform="translate(0 1.796)">
          <g id="Group_59-3" data-name="Group 59" transform="translate(0.243 -0.39)">
            <rect id="Rectangle_21-3" data-name="Rectangle 21" width="43" height="23" transform="translate(22 0.204)" fill="#0f1420"/>
            <rect id="Rectangle_20-3" data-name="Rectangle 20" width="65" height="40" transform="translate(0 16.204)" fill="#0f1420"/>
          </g>
        </g>
        <g id="Group_57-3" data-name="Group 57" transform="translate(0.252 0.238)">
          <g id="Group_52-3" data-name="Group 52">
            <g id="Group_185-3" data-name="Group 185">
              <line id="Line_5-4" data-name="Line 5" x2="48" transform="translate(20.49 2.872)" fill="none" stroke="#c79e63" stroke-width="6"/>
              <line id="Line_7-4" data-name="Line 7" x2="69" transform="translate(-0.51 55.829)" fill="none" stroke="#c79e63" stroke-width="6"/>
              <line id="Line_8-4" data-name="Line 8" y2="42.897" transform="translate(2.512 15.165)" fill="none" stroke="#c79e63" stroke-width="6"/>
              <path id="Path_11-4" data-name="Path 11" d="M.16.211V58.329" transform="translate(65.319)" fill="none" stroke="#c79e63" stroke-width="6"/>
              <path id="Path_13-4" data-name="Path 13" d="M0,0H22.978" transform="translate(2.512 18.062)" fill="none" stroke="#c79e63" stroke-width="6"/>
              <line id="Line_11-4" data-name="Line 11" x1="0.12" y2="18.268" transform="translate(22.49 2.604)" fill="none" stroke="#c79e63" stroke-width="6"/>
              <path id="Path_12-4" data-name="Path 12" d="M1.232,14.9,22.246-.175" transform="translate(0 2.604)" fill="none" stroke="#c79e63" stroke-width="6"/>
            </g>
          </g>
          <text id="all-5" data-name="all" transform="translate(21.99 41.372)" fill="#fff" font-size="27" font-family="HelveticaNeue-Medium, Helvetica Neue" font-weight="500"><tspan x="0" y="0">all</tspan></text>
        </g>
      </g>
    </g>
    <g id="Group_196" data-name="Group 196" transform="translate(-0.415 799.636)">
      <path id="Path_9-3" data-name="Path 9" d="M0,0H68.162V47.373H0Z" transform="translate(2.493 1.724)" fill="#0f1420"/>
      <g id="email-envelope-outline-6" data-name="email-envelope-outline" transform="translate(0.415 0.364)">
        <path id="Path_2-6" data-name="Path 2" d="M70.155,59.111H.769a.77.77,0,0,0-.769.77v47.8a.77.77,0,0,0,.769.77H70.155a.772.772,0,0,0,.771-.77v-47.8A.772.772,0,0,0,70.155,59.111ZM58.421,65.279,35.463,82.115,12.505,65.279Zm6.338,37H6.168v-34L35.007,89.429a.774.774,0,0,0,.914,0L64.76,68.281v34Z" transform="translate(0 -59.111)" fill="#c79e63"/>
      </g>
      <text id="all-6" data-name="all" transform="translate(22 35)" fill="#fff" font-size="27" font-family="HelveticaNeue-Medium, Helvetica Neue" font-weight="500"><tspan x="0" y="0">all</tspan></text>
    </g>
    <g id="Group_198" data-name="Group 198" transform="translate(-43.5 1036.161)">
      <path id="Path_15" data-name="Path 15" d="M8.5,0,17,9H0Z" transform="matrix(-0.819, 0.574, -0.574, -0.819, 70.337, 276.018)" fill="#720039"/>
      <g id="Group_61-4" data-name="Group 61" transform="translate(43.757 263.39)">
        <g id="Group_60-4" data-name="Group 60" transform="translate(0 1.796)">
          <g id="Group_59-4" data-name="Group 59" transform="translate(0.243 -0.39)">
            <rect id="Rectangle_21-4" data-name="Rectangle 21" width="43" height="23" transform="translate(22 0.204)" fill="#0f1420"/>
            <rect id="Rectangle_20-4" data-name="Rectangle 20" width="65" height="40" transform="translate(0 16.204)" fill="#0f1420"/>
          </g>
        </g>
        <g id="Group_57-4" data-name="Group 57" transform="translate(0.252 0.238)">
          <g id="Group_52-4" data-name="Group 52">
            <g id="Group_185-4" data-name="Group 185">
              <line id="Line_5-5" data-name="Line 5" x2="48" transform="translate(20.49 2.872)" fill="none" stroke="#d2006b" stroke-width="6"/>
              <line id="Line_7-5" data-name="Line 7" x2="69" transform="translate(-0.51 55.829)" fill="none" stroke="#d2006b" stroke-width="6"/>
              <line id="Line_8-5" data-name="Line 8" y2="42.897" transform="translate(2.512 15.165)" fill="none" stroke="#d2006b" stroke-width="6"/>
              <path id="Path_11-5" data-name="Path 11" d="M.16.211V58.329" transform="translate(65.319)" fill="none" stroke="#d2006b" stroke-width="6"/>
              <path id="Path_13-5" data-name="Path 13" d="M0,0H22.978" transform="translate(2.512 18.062)" fill="none" stroke="#d2006b" stroke-width="6"/>
              <line id="Line_11-5" data-name="Line 11" x1="0.12" y2="18.268" transform="translate(22.49 2.604)" fill="none" stroke="#d2006b" stroke-width="6"/>
              <path id="Path_12-5" data-name="Path 12" d="M1.232,14.9,22.246-.175" transform="translate(0 2.604)" fill="none" stroke="#d2006b" stroke-width="6"/>
            </g>
          </g>
          <text id="all-7" data-name="all" transform="translate(21.99 41.372)" fill="#fff" font-size="27" font-family="HelveticaNeue-Medium, Helvetica Neue" font-weight="500"><tspan x="0" y="0">all</tspan></text>
        </g>
      </g>
    </g>
    <g id="Group_199" data-name="Group 199" transform="translate(-0.415 1199.636)">
      <path id="Path_9-4" data-name="Path 9" d="M0,0H68.162V44.047H0Z" transform="translate(2.493 1.724)" fill="#0f1420"/>
      <g id="email-envelope-outline-7" data-name="email-envelope-outline" transform="translate(0.415 0.364)">
        <path id="Path_2-7" data-name="Path 2" d="M70.155,59.111H.769a.77.77,0,0,0-.769.77v47.8a.77.77,0,0,0,.769.77H70.155a.772.772,0,0,0,.771-.77v-47.8A.772.772,0,0,0,70.155,59.111ZM58.421,65.279,35.463,82.115,12.505,65.279Zm6.338,37H6.168v-34L35.007,89.429a.774.774,0,0,0,.914,0L64.76,68.281v34Z" transform="translate(0 -59.111)" fill="#d2006b"/>
      </g>
      <text id="all-8" data-name="all" transform="translate(22 35)" fill="#fff" font-size="27" font-family="HelveticaNeue-Medium, Helvetica Neue" font-weight="500"><tspan x="0" y="0">all</tspan></text>
    </g>
    <g id="Group_200" data-name="Group 200" transform="translate(-41.415 1042.503)">
      <rect id="Rectangle_27-4" data-name="Rectangle 27" width="63" height="41" transform="translate(47 362)" fill="#101520"/>
      <g id="Group_49-4" data-name="Group 49" transform="translate(41.415 357.497)">
        <g id="email-envelope-outline-8" data-name="email-envelope-outline" transform="translate(0 0)">
          <path id="Path_2-8" data-name="Path 2" d="M70.155,59.111H.769a.77.77,0,0,0-.769.77v47.8a.77.77,0,0,0,.769.77H70.155a.772.772,0,0,0,.771-.77v-47.8A.772.772,0,0,0,70.155,59.111ZM58.421,65.279,35.463,82.115,12.505,65.279Zm6.338,37H6.168v-34L35.007,89.429a.774.774,0,0,0,.914,0L64.76,68.281v34Z" transform="translate(0 -59.111)" fill="#d2006b"/>
        </g>
        <g id="Group_46-4" data-name="Group 46" transform="translate(47.456 27.31)">
          <line id="Line_3-5" data-name="Line 3" y2="33.04" transform="translate(17.044 0)" fill="none" stroke="#ecbf00" stroke-width="8"/>
          <line id="Line_4-5" data-name="Line 4" x2="34.129" transform="translate(0 16.976)" fill="none" stroke="#ecbf00" stroke-width="8"/>
        </g>
      </g>
    </g>
    <g id="Group_201" data-name="Group 201" transform="translate(-41.5 1048.161)">
      <g id="Group_204" data-name="Group 204">
        <path id="Path_17" data-name="Path 17" d="M8.5,0,17,9H0Z" transform="matrix(-0.819, 0.574, -0.574, -0.819, 68.337, 465.018)" fill="#720039"/>
        <path id="Path_14-2" data-name="Path 14" d="M45.385,469.638H64.906V454.214h42.573V507.57H45.385Z" fill="#101520"/>
      </g>
      <g id="Group_187-2" data-name="Group 187" transform="translate(1)">
        <g id="Group_186-2" data-name="Group 186" transform="translate(41.01 451.628)">
          <line id="Line_5-6" data-name="Line 5" x2="48" transform="translate(20.49 2.872)" fill="none" stroke="#d2006b" stroke-width="6"/>
          <line id="Line_7-6" data-name="Line 7" x2="69" transform="translate(-0.51 55.829)" fill="none" stroke="#d2006b" stroke-width="6"/>
          <line id="Line_8-6" data-name="Line 8" y2="42.897" transform="translate(2.512 15.165)" fill="none" stroke="#d2006b" stroke-width="6"/>
          <path id="Path_11-6" data-name="Path 11" d="M.16.211V58.329" transform="translate(65.319)" fill="none" stroke="#d2006b" stroke-width="6"/>
          <path id="Path_13-6" data-name="Path 13" d="M0,0H22.978" transform="translate(2.512 18.062)" fill="none" stroke="#d2006b" stroke-width="6"/>
          <line id="Line_11-6" data-name="Line 11" x1="0.12" y2="18.268" transform="translate(22.49 2.604)" fill="none" stroke="#d2006b" stroke-width="6"/>
          <path id="Path_12-6" data-name="Path 12" d="M1.232,14.9,22.246-.175" transform="translate(0 2.604)" fill="none" stroke="#d2006b" stroke-width="6"/>
        </g>
        <g id="Group_53-2" data-name="Group 53" transform="translate(40.252 450.87)">
          <g id="Group_51-2" data-name="Group 51" transform="translate(47.413 37.67)">
            <line id="Line_3-6" data-name="Line 3" y2="33.04" transform="translate(17.044 0)" fill="none" stroke="#ecbf00" stroke-width="8"/>
            <line id="Line_4-6" data-name="Line 4" x2="34.129" transform="translate(0 16.976)" fill="none" stroke="#ecbf00" stroke-width="8"/>
          </g>
        </g>
      </g>
    </g>
    <g id="Group_202" data-name="Group 202">
      <path id="Path_16" data-name="Path 16" d="M8.5,0,17,9H0Z" transform="matrix(-0.819, 0.574, -0.574, -0.819, 26.837, 713.179)" fill="#e3348e"/>
      <g id="Group_193" data-name="Group 193" transform="translate(-41.5 248.161)">
        <path id="Path_14-3" data-name="Path 14" d="M45.385,470.825H65.495V454.214h41.984V507.57H45.385Z" fill="#fff"/>
        <g id="Group_187-3" data-name="Group 187" transform="translate(1)">
          <g id="Group_186-3" data-name="Group 186" transform="translate(41.01 451.628)">
            <line id="Line_5-7" data-name="Line 5" x2="48" transform="translate(20.49 2.872)" fill="none" stroke="#d2006b" stroke-width="6"/>
            <line id="Line_7-7" data-name="Line 7" x2="69" transform="translate(-0.51 55.829)" fill="none" stroke="#d2006b" stroke-width="6"/>
            <line id="Line_8-7" data-name="Line 8" y2="42.897" transform="translate(2.512 15.165)" fill="none" stroke="#d2006b" stroke-width="6"/>
            <path id="Path_11-7" data-name="Path 11" d="M.16.211V58.329" transform="translate(65.319)" fill="none" stroke="#d2006b" stroke-width="6"/>
            <path id="Path_13-7" data-name="Path 13" d="M0,0H22.978" transform="translate(2.512 18.062)" fill="none" stroke="#d2006b" stroke-width="6"/>
            <line id="Line_11-7" data-name="Line 11" x1="0.12" y2="18.268" transform="translate(22.49 2.604)" fill="none" stroke="#d2006b" stroke-width="6"/>
            <path id="Path_12-7" data-name="Path 12" d="M1.232,14.9,22.246-.175" transform="translate(0 2.604)" fill="none" stroke="#d2006b" stroke-width="6"/>
          </g>
          <g id="Group_53-3" data-name="Group 53" transform="translate(40.252 450.87)">
            <g id="Group_51-3" data-name="Group 51" transform="translate(47.413 37.67)">
              <line id="Line_3-7" data-name="Line 3" y2="33.04" transform="translate(17.044 0)" fill="none" stroke="#ecbf00" stroke-width="8"/>
              <line id="Line_4-7" data-name="Line 4" x2="34.129" transform="translate(0 16.976)" fill="none" stroke="#ecbf00" stroke-width="8"/>
            </g>
          </g>
        </g>
      </g>
    </g>
    <g id="Group_203" data-name="Group 203">
      <path id="Polygon_6" data-name="Polygon 6" d="M8.5,0,17,9H0Z" transform="matrix(-0.819, 0.574, -0.574, -0.819, 26.837, 1114.179)" fill="#573300"/>
      <g id="Group_197" data-name="Group 197" transform="translate(-41.5 648.161)">
        <path id="Polygon_7" data-name="Polygon 7" d="M8.5,0,17,9H0Z" transform="matrix(-0.819, 0.574, -0.574, -0.819, 68.337, 466.018)" fill="#573300"/>
        <path id="Path_14-4" data-name="Path 14" d="M45.385,469.638H65.474V454.214h42.005V507.57H45.385Z" fill="#101520"/>
        <g id="Group_187-4" data-name="Group 187" transform="translate(1)">
          <g id="Group_186-4" data-name="Group 186" transform="translate(41.01 451.628)">
            <line id="Line_5-8" data-name="Line 5" x2="48" transform="translate(20.49 2.872)" fill="none" stroke="#c79e63" stroke-width="6"/>
            <line id="Line_7-8" data-name="Line 7" x2="69" transform="translate(-0.51 55.829)" fill="none" stroke="#c79e63" stroke-width="6"/>
            <line id="Line_8-8" data-name="Line 8" y2="42.897" transform="translate(2.512 15.165)" fill="none" stroke="#c79e63" stroke-width="6"/>
            <path id="Path_11-8" data-name="Path 11" d="M.16.211V58.329" transform="translate(65.319)" fill="#c79e63" stroke="#c79e63" stroke-width="6"/>
            <path id="Path_13-8" data-name="Path 13" d="M0,0H22.978" transform="translate(2.512 18.062)" fill="#c79e63" stroke="#c79e63" stroke-width="6"/>
            <line id="Line_11-8" data-name="Line 11" x1="0.12" y2="18.268" transform="translate(22.49 2.604)" fill="none" stroke="#c79e63" stroke-width="6"/>
            <path id="Path_12-8" data-name="Path 12" d="M1.232,14.9,22.246-.175" transform="translate(0 2.604)" fill="#c79e63" stroke="#c79e63" stroke-width="6"/>
          </g>
          <g id="Group_53-4" data-name="Group 53" transform="translate(40.252 450.87)">
            <g id="Group_51-4" data-name="Group 51" transform="translate(47.413 37.67)">
              <line id="Line_3-8" data-name="Line 3" y2="33.04" transform="translate(17.044 0)" fill="none" stroke="#ecbf00" stroke-width="8"/>
              <line id="Line_4-8" data-name="Line 4" x2="34.129" transform="translate(0 16.976)" fill="none" stroke="#ecbf00" stroke-width="8"/>
            </g>
          </g>
        </g>
      </g>
    </g>
  </g>
</svg>
