<svg xmlns="http://www.w3.org/2000/svg" width="72" height="51" viewBox="0 0 72 51"><path d="M0,0H72V51H0Z" fill="#76d5db"/><g transform="translate(0.415 0.364)"><path d="M70.155,59.111H.769a.77.77,0,0,0-.769.77v47.8a.77.77,0,0,0,.769.77H70.155a.772.772,0,0,0,.771-.77v-47.8A.772.772,0,0,0,70.155,59.111ZM58.421,65.279,35.463,82.115,12.505,65.279Zm6.338,37H6.168v-34L35.007,89.429a.774.774,0,0,0,.914,0L64.76,68.281v34Z" transform="translate(0 -59.111)" fill="#00a2b8"/></g><text transform="translate(22 35)" fill="#fff" font-size="27" font-family="ArialMT, Arial"><tspan x="0" y="0">all</tspan></text></svg>