<svg xmlns="http://www.w3.org/2000/svg" width="159.244" height="170.93" viewBox="0 0 159.244 170.93">
  <g id="Group_112" data-name="Group 112" transform="translate(-3499 -259.07)">
    <g id="Path_67" data-name="Path 67" transform="translate(3499 282)" fill="none">
      <path d="M39,0H97a39,39,0,0,1,39,39v70a39,39,0,0,1-39,39H39A39,39,0,0,1,0,109V39A39,39,0,0,1,39,0Z" stroke="none"/>
      <path d="M 39 15 C 25.76636505126953 15 15 25.76636505126953 15 39 L 15 109 C 15 122.2336349487305 25.76636505126953 133 39 133 L 97 133 C 110.2336349487305 133 121 122.2336349487305 121 109 L 121 39 C 121 25.76636505126953 110.2336349487305 15 97 15 L 39 15 M 39 0 L 97 0 C 118.5391006469727 0 136 17.46090698242188 136 39 L 136 109 C 136 130.5390930175781 118.5391006469727 148 97 148 L 39 148 C 17.46089935302734 148 0 130.5390930175781 0 109 L 0 39 C 0 17.46090698242188 17.46089935302734 0 39 0 Z" stroke="none" fill="#fff"/>
    </g>
    <g id="Path_68" data-name="Path 68" transform="translate(3500 282)" fill="none">
      <path d="M77.18,15.482V0H97a39,39,0,0,1,39,39l1.634,20.018H118.026l-10.6-31.3S70.674,15.482,77.18,15.482Z" stroke="none"/>
      <path d="M 77.17967224121094 -3.814697265625e-06 L 97 -3.814697265625e-06 C 118.5391235351562 -3.814697265625e-06 136 17.46087646484375 136 38.99999237060547 L 137.63427734375 59.01758193969727 L 118.0258865356445 59.01758193969727 L 107.4296798706055 27.71337699890137 C 107.4296798706055 27.71337699890137 70.67433166503906 15.48193740844727 77.17967224121094 15.48193740844727 L 77.17967224121094 -3.814697265625e-06 Z" stroke="none" fill="#233369"/>
    </g>
    <g id="Group_110" data-name="Group 110" transform="translate(6 17)">
      <path id="Path_64" data-name="Path 64" d="M6580.286,4281.723l49.5-55.483" transform="translate(-3003.231 -3957.708)" fill="none" stroke="#fff" stroke-width="15"/>
      <g id="Group_109" data-name="Group 109" transform="translate(25)">
        <path id="Path_65" data-name="Path 65" d="M6642.9,4242.577h57.682" transform="translate(-3081 -3993)" fill="none" stroke="#fff" stroke-width="15"/>
        <path id="Path_66" data-name="Path 66" d="M6642.9,4242.577h73.347" transform="translate(7862.321 -6400.833) rotate(90)" fill="none" stroke="#fff" stroke-width="15"/>
      </g>
    </g>
  </g>
</svg>
