<svg id="Group_206" data-name="Group 206" xmlns="http://www.w3.org/2000/svg" width="69.629" height="70.656" viewBox="0 0 69.629 70.656">
  <g id="Group_205" data-name="Group 205" transform="translate(4.974 6)">
    <rect id="Rectangle_155" data-name="Rectangle 155" width="52" height="58" transform="translate(6.556 6.591)" fill="#173067"/>
    <path id="facebook-square" d="M57.728,96.656H6.927A6.927,6.927,0,0,1,0,89.728v-50.8A6.927,6.927,0,0,1,6.927,32H26.736V53.982H17.643V64.328h9.092v7.886c0,8.97,5.34,13.924,13.519,13.924a55.083,55.083,0,0,0,8.013-.7v-8.8H43.754c-4.447,0-5.833-2.759-5.833-5.59V64.328h9.926L46.259,53.982H37.92V32H57.728a6.927,6.927,0,0,1,6.927,6.927v50.8a6.927,6.927,0,0,1-6.927,6.927Z" transform="translate(0 -32)" fill="#173067"/>
  </g>
  <g id="Group_204" data-name="Group 204" transform="translate(0.069 0.42)">
    <path id="facebook-square-2" data-name="facebook-square" d="M57.713,96.642H6.912c-3.826,0-9.843-5.635-9.843-9.461L-.016,38.914a6.927,6.927,0,0,1,6.927-6.927H26.72V53.968H17.628V64.314H26.72V72.2c0,8.97,5.34,13.924,13.519,13.924a55.082,55.082,0,0,0,8.013-.7v-8.8H43.738c-4.447,0-5.833-2.759-5.833-5.59V64.314h9.926L46.244,53.968H37.9V31.986L56.12,29.42c3.826,0,8.52,5.668,8.52,9.494v50.8a6.927,6.927,0,0,1-6.927,6.927Z" transform="translate(2.931 -29.42)" fill="#5474b9"/>
  </g>
  <g id="Group_203" data-name="Group 203">
    <rect id="Rectangle_155-2" data-name="Rectangle 155" width="52" height="58" transform="translate(6.53 6.591)" fill="#5575b9"/>
    <path id="facebook-square-3" data-name="facebook-square" d="M57.728,32H6.927A6.927,6.927,0,0,0,0,38.927v50.8a6.927,6.927,0,0,0,6.927,6.927H26.736V74.674H17.643V64.328h9.092V56.442c0-8.97,5.34-13.924,13.519-13.924a55.082,55.082,0,0,1,8.013.7v8.8H43.754c-4.447,0-5.833,2.759-5.833,5.59v6.718h9.926L46.259,74.674H37.92V96.656H57.728a6.927,6.927,0,0,0,6.927-6.927v-50.8A6.927,6.927,0,0,0,57.728,32Z" transform="translate(0 -32)" fill="#fff"/>
  </g>
</svg>
