<svg id="Group_210" data-name="Group 210" xmlns="http://www.w3.org/2000/svg" width="71.619" height="70.656" viewBox="0 0 71.619 70.656">
  <path id="twitter-square" d="M57.728,32H6.927A6.929,6.929,0,0,0,0,38.927v50.8a6.929,6.929,0,0,0,6.927,6.927h50.8a6.929,6.929,0,0,0,6.927-6.927v-50.8A6.929,6.929,0,0,0,57.728,32ZM50.671,54.918c.029.4.029.823.029,1.227,0,12.513-9.525,26.93-26.93,26.93A26.806,26.806,0,0,1,9.237,78.832a19.942,19.942,0,0,0,2.28.115,18.977,18.977,0,0,0,11.748-4.041,9.478,9.478,0,0,1-8.847-6.567,10.2,10.2,0,0,0,4.272-.173,9.466,9.466,0,0,1-7.577-9.294v-.115a9.459,9.459,0,0,0,4.272,1.2,9.445,9.445,0,0,1-4.214-7.88A9.347,9.347,0,0,1,12.455,47.3a26.876,26.876,0,0,0,19.512,9.9,9.486,9.486,0,0,1,16.15-8.645,18.548,18.548,0,0,0,6-2.28,9.441,9.441,0,0,1-4.156,5.21,18.836,18.836,0,0,0,5.455-1.472A19.923,19.923,0,0,1,50.671,54.918Z" transform="translate(6.963 -26)" fill="#0e2d40"/>
  <path id="twitter-square-2" data-name="twitter-square" d="M54.859,28.653,6.908,31.982A6.929,6.929,0,0,0-.019,38.91L-3.635,86.051c0,3.825,6.718,10.587,10.543,10.587h50.8a6.929,6.929,0,0,0,6.927-6.927V38.91C64.637,35.085,58.683,28.653,54.859,28.653ZM50.652,54.9c.029.4.029.823.029,1.227,0,12.513-9.525,26.93-26.93,26.93A26.806,26.806,0,0,1,9.217,78.815a19.942,19.942,0,0,0,2.28.115,18.977,18.977,0,0,0,11.748-4.041A9.478,9.478,0,0,1,14.4,68.322a10.2,10.2,0,0,0,4.272-.173,9.466,9.466,0,0,1-7.577-9.294v-.115a9.459,9.459,0,0,0,4.272,1.2,9.445,9.445,0,0,1-4.214-7.88,9.347,9.347,0,0,1,1.284-4.777,26.876,26.876,0,0,0,19.512,9.9A9.486,9.486,0,0,1,48.1,48.536a18.548,18.548,0,0,0,6-2.28,9.441,9.441,0,0,1-4.156,5.21A18.836,18.836,0,0,0,55.4,49.994,19.923,19.923,0,0,1,50.652,54.9Z" transform="translate(3.998 -28)" fill="#174764"/>
  <g id="Rectangle_153" data-name="Rectangle 153" transform="translate(0.121 9)" fill="#fff" stroke="#707070" stroke-width="1">
    <rect width="65" height="45" stroke="none"/>
    <rect x="0.5" y="0.5" width="64" height="44" fill="none"/>
  </g>
  <path id="twitter-square-3" data-name="twitter-square" d="M57.728,32H6.927A6.929,6.929,0,0,0,0,38.927v50.8a6.929,6.929,0,0,0,6.927,6.927h50.8a6.929,6.929,0,0,0,6.927-6.927v-50.8A6.929,6.929,0,0,0,57.728,32ZM50.671,54.918c.029.4.029.823.029,1.227,0,12.513-9.525,26.93-26.93,26.93A26.806,26.806,0,0,1,9.237,78.832a19.942,19.942,0,0,0,2.28.115,18.977,18.977,0,0,0,11.748-4.041,9.478,9.478,0,0,1-8.847-6.567,10.2,10.2,0,0,0,4.272-.173,9.466,9.466,0,0,1-7.577-9.294v-.115a9.459,9.459,0,0,0,4.272,1.2,9.445,9.445,0,0,1-4.214-7.88A9.347,9.347,0,0,1,12.455,47.3a26.876,26.876,0,0,0,19.512,9.9,9.486,9.486,0,0,1,16.15-8.645,18.548,18.548,0,0,0,6-2.28,9.441,9.441,0,0,1-4.156,5.21,18.836,18.836,0,0,0,5.455-1.472A19.923,19.923,0,0,1,50.671,54.918Z" transform="translate(0 -32)" fill="#1da1f2"/>
</svg>
