<svg xmlns="http://www.w3.org/2000/svg" xmlns:xlink="http://www.w3.org/1999/xlink" width="71.001" height="74.825" viewBox="0 0 71.001 74.825">
  <defs>
    <radialGradient id="radial-gradient" cx="0.121" cy="0.059" r="1.068" gradientTransform="matrix(0.625, 0.781, -0.781, 0.625, 0.134, -0.094)" gradientUnits="objectBoundingBox">
      <stop offset="0" stop-color="#3a2fc4"/>
      <stop offset="0.3" stop-color="#9b3bac"/>
      <stop offset="0.616" stop-color="#e56161"/>
      <stop offset="1" stop-color="#f8c843"/>
    </radialGradient>
  </defs>
  <g id="Group_212" data-name="Group 212" transform="translate(-789.999 -4633)">
    <path id="instagram" d="M64.7,50.919c-.247-5.206-1.436-9.817-5.249-13.616s-8.411-4.988-13.616-5.249c-5.365-.3-21.447-.3-26.812,0-5.191.247-9.8,1.436-13.616,5.235S.414,45.7.153,50.9c-.3,5.365-.3,21.447,0,26.812C.4,82.923,1.589,87.534,5.4,91.334s8.411,4.988,13.616,5.249c5.365.3,21.447.3,26.812,0,5.206-.247,9.817-1.436,13.616-5.249s4.988-8.411,5.249-13.616c.3-5.365.3-21.432,0-26.8Z" transform="translate(796.074 4611.014)" fill="#191541"/>
    <g id="Group_207" data-name="Group 207" transform="translate(-332)">
      <path id="instagram-2" data-name="instagram" d="M64.753,50.935c-.247-5.21-4.146-13.86-7.963-17.663s-5.708-.958-10.919-1.219c-5.37-.3-21.465-.3-26.835,0-5.2.247-9.811,1.437-13.628,5.239S.415,45.711.154,50.921c-.3,5.37-.3,21.465,0,26.835.247,5.21.6,8.038,4.421,11.841s9.251,6.78,14.461,7.041c5.37.3,21.465.3,26.835,0,5.21-.247,9.826-1.437,13.628-5.254s4.993-8.418,5.254-13.628c.3-5.37.3-21.451,0-26.821Z" transform="translate(1125.047 4606.013)" fill="url(#radial-gradient)"/>
      <path id="instagram-3" data-name="instagram" d="M32.432,47.656A16.661,16.661,0,1,0,49.094,64.318,16.635,16.635,0,0,0,32.432,47.656Zm0,27.494A10.832,10.832,0,1,1,43.264,64.318,10.852,10.852,0,0,1,32.432,75.15ZM53.661,46.975a3.886,3.886,0,1,1-3.886-3.886A3.877,3.877,0,0,1,53.661,46.975ZM64.7,50.919C64.45,45.713,63.261,41.1,59.447,37.3s-8.41-4.988-13.616-5.249c-5.365-.3-21.447-.3-26.812,0-5.191.247-9.8,1.436-13.616,5.235S.414,45.7.153,50.9c-.3,5.365-.3,21.447,0,26.812C.4,82.922,1.589,87.534,5.4,91.333s8.41,4.988,13.616,5.249c5.365.3,21.447.3,26.812,0,5.206-.247,9.817-1.436,13.616-5.249s4.988-8.41,5.249-13.616c.3-5.365.3-21.432,0-26.8ZM57.765,83.473a10.967,10.967,0,0,1-6.177,6.177c-4.278,1.7-14.428,1.305-19.156,1.305s-14.892.377-19.156-1.305A10.967,10.967,0,0,1,7.1,83.473C5.4,79.2,5.794,69.045,5.794,64.318S5.417,49.425,7.1,45.162a10.967,10.967,0,0,1,6.177-6.177c4.278-1.7,14.428-1.305,19.156-1.305s14.892-.377,19.156,1.305a10.967,10.967,0,0,1,6.177,6.177c1.7,4.278,1.305,14.428,1.305,19.156S59.462,79.21,57.765,83.473Z" transform="translate(1122.074 4601.175)" fill="#fff"/>
    </g>
  </g>
</svg>
