<svg xmlns="http://www.w3.org/2000/svg" width="68.56" height="67.656" viewBox="0 0 68.56 67.656">
  <g id="Group_206" data-name="Group 206" transform="translate(-1.069 -3)">
    <g id="Group_205" data-name="Group 205" transform="translate(4.974 6)">
      <rect id="Rectangle_155" data-name="Rectangle 155" width="52" height="58" transform="translate(6.556 6.591)" fill="#173067"/>
      <path id="facebook-square" d="M57.728,96.656H6.927A6.927,6.927,0,0,1,0,89.728v-50.8A6.927,6.927,0,0,1,6.927,32H26.736V53.982H17.643V64.328h9.092v7.886c0,8.97,5.34,13.924,13.519,13.924a55.083,55.083,0,0,0,8.013-.7v-8.8H43.754c-4.447,0-5.833-2.759-5.833-5.59V64.328h9.926L46.259,53.982H37.92V32H57.728a6.927,6.927,0,0,1,6.927,6.927v50.8a6.927,6.927,0,0,1-6.927,6.927Z" transform="translate(0 -32)" fill="#173067"/>
    </g>
    <g id="Group_204" data-name="Group 204" transform="translate(1.069 2.42)">
      <path id="facebook-square-2" data-name="facebook-square" d="M57.044,95.9H6.8c-3.784,0-9.734-5.573-9.734-9.357L-.048,38.809A6.851,6.851,0,0,1,6.8,31.958H26.393V53.7H17.4V63.929h8.992v7.8c0,8.871,5.281,13.77,13.369,13.77a54.475,54.475,0,0,0,7.924-.691V76.1H43.223c-4.4,0-5.769-2.729-5.769-5.528V63.929h9.817L45.7,53.7H37.454V31.958l17.745-.87c3.784,0,8.7,3.937,8.7,7.721v50.24A6.851,6.851,0,0,1,57.044,95.9Z" transform="translate(2.931 -29.42)" fill="#5474b9"/>
    </g>
    <g id="Group_203" data-name="Group 203" transform="translate(2 3)">
      <rect id="Rectangle_155-2" data-name="Rectangle 155" width="52" height="58" transform="translate(6.53 6.591)" fill="#5575b9"/>
      <path id="facebook-square-3" data-name="facebook-square" d="M57.728,32H6.927A6.927,6.927,0,0,0,0,38.927v50.8a6.927,6.927,0,0,0,6.927,6.927H26.736V74.674H17.643V64.328h9.092V56.442c0-8.97,5.34-13.924,13.519-13.924a55.082,55.082,0,0,1,8.013.7v8.8H43.754c-4.447,0-5.833,2.759-5.833,5.59v6.718h9.926L46.259,74.674H37.92V96.656H57.728a6.927,6.927,0,0,0,6.927-6.927v-50.8A6.927,6.927,0,0,0,57.728,32Z" transform="translate(0 -32)" fill="#fff"/>
    </g>
  </g>
</svg>
