<svg xmlns="http://www.w3.org/2000/svg" xmlns:xlink="http://www.w3.org/1999/xlink" width="68.602" height="69.427" viewBox="0 0 68.602 69.427">
  <defs>
    <radialGradient id="radial-gradient" cx="0.121" cy="0.059" r="1.068" gradientTransform="matrix(0.625, 0.781, -0.781, 0.625, 0.134, -0.094)" gradientUnits="objectBoundingBox">
      <stop offset="0" stop-color="#3a2fc4"/>
      <stop offset="0.3" stop-color="#9b3bac"/>
      <stop offset="0.616" stop-color="#e56161"/>
      <stop offset="1" stop-color="#f8c843"/>
    </radialGradient>
  </defs>
  <g id="Group_212" data-name="Group 212" transform="translate(-791.999 -4635)">
    <path id="instagram" d="M60.314,49.627c-.23-4.854-1.338-9.153-4.894-12.7s-7.841-4.651-12.7-4.894c-5-.284-20-.284-25,0-4.84.23-9.139,1.338-12.7,4.881S.381,44.76.138,49.614c-.284,5-.284,20,0,25,.23,4.854,1.338,9.153,4.894,12.7s7.841,4.651,12.7,4.894c5,.284,20,.284,25,0,4.854-.23,9.153-1.338,12.7-4.894s4.651-7.841,4.894-12.7c.284-5,.284-19.982,0-24.985Z" transform="translate(800.074 4612.014)" fill="#191541"/>
    <g id="Group_207" data-name="Group 207" transform="translate(-330 2)">
      <path id="instagram-2" data-name="instagram" d="M62.454,50.238c-.238-5.026-4-13.369-7.681-17.036s-5.506-.924-10.532-1.176c-5.18-.294-20.7-.294-25.884,0-5.012.238-9.463,1.386-13.145,5.054S.4,45.2.145,50.224c-.294,5.18-.294,20.7,0,25.884.238,5.026.583,7.753,4.264,11.421s8.923,6.539,13.948,6.791c5.18.294,20.7.294,25.884,0,5.026-.238,9.477-1.386,13.145-5.068s4.816-8.119,5.068-13.145c.294-5.18.294-20.69,0-25.87Z" transform="translate(1125.047 4604.013)" fill="url(#radial-gradient)"/>
      <path id="instagram-3" data-name="instagram" d="M32.432,47.656A16.661,16.661,0,1,0,49.094,64.318,16.635,16.635,0,0,0,32.432,47.656Zm0,27.494A10.832,10.832,0,1,1,43.264,64.318,10.852,10.852,0,0,1,32.432,75.15ZM53.661,46.975a3.886,3.886,0,1,1-3.886-3.886A3.877,3.877,0,0,1,53.661,46.975ZM64.7,50.919C64.45,45.713,63.261,41.1,59.447,37.3s-8.41-4.988-13.616-5.249c-5.365-.3-21.447-.3-26.812,0-5.191.247-9.8,1.436-13.616,5.235S.414,45.7.153,50.9c-.3,5.365-.3,21.447,0,26.812C.4,82.922,1.589,87.534,5.4,91.333s8.41,4.988,13.616,5.249c5.365.3,21.447.3,26.812,0,5.206-.247,9.817-1.436,13.616-5.249s4.988-8.41,5.249-13.616c.3-5.365.3-21.432,0-26.8ZM57.765,83.473a10.967,10.967,0,0,1-6.177,6.177c-4.278,1.7-14.428,1.305-19.156,1.305s-14.892.377-19.156-1.305A10.967,10.967,0,0,1,7.1,83.473C5.4,79.2,5.794,69.045,5.794,64.318S5.417,49.425,7.1,45.162a10.967,10.967,0,0,1,6.177-6.177c4.278-1.7,14.428-1.305,19.156-1.305s14.892-.377,19.156,1.305a10.967,10.967,0,0,1,6.177,6.177c1.7,4.278,1.305,14.428,1.305,19.156S59.462,79.21,57.765,83.473Z" transform="translate(1122.074 4601.175)" fill="#fff"/>
    </g>
  </g>
</svg>
