<svg xmlns="http://www.w3.org/2000/svg" xmlns:xlink="http://www.w3.org/1999/xlink" width="362.746" height="362.746" viewBox="0 0 362.746 362.746">
  <defs>
    <linearGradient id="linear-gradient" x1="-0.08" y1="0.78" x2="0.563" y2="1" gradientUnits="objectBoundingBox">
      <stop offset="0" stop-color="#f0f8fa"/>
      <stop offset="1" stop-color="#b3bdbe"/>
    </linearGradient>
    <linearGradient id="linear-gradient-3" x1="0.039" y1="0.644" x2="0.826" y2="0.945" gradientUnits="objectBoundingBox">
      <stop offset="0" stop-color="#e1ecef"/>
      <stop offset="1" stop-color="#b5bcbe"/>
    </linearGradient>
    <linearGradient id="linear-gradient-4" x1="0.039" y1="0.644" x2="0.826" y2="0.945" gradientUnits="objectBoundingBox">
      <stop offset="0" stop-color="#fff"/>
      <stop offset="1" stop-color="#ecf2f4"/>
    </linearGradient>
  </defs>
  <g id="Group_22" data-name="Group 22" transform="translate(642.053 -515.481) rotate(45)">
    <g id="Group_21" data-name="Group 21">
      <g id="Group_20" data-name="Group 20">
        <g id="Group_14" data-name="Group 14">
          <path id="Polygon_7" data-name="Polygon 7" d="M25.124,20.571a13,13,0,0,1,22.752,0L62.331,46.709A13,13,0,0,1,50.955,66H22.045A13,13,0,0,1,10.669,46.709Z" transform="translate(240 1002) rotate(180)" fill="#ffed67"/>
          <path id="Polygon_5" data-name="Polygon 5" d="M25.124,20.571a13,13,0,0,1,22.752,0L62.331,46.709A13,13,0,0,1,50.955,66H22.045A13,13,0,0,1,10.669,46.709Z" transform="translate(240 984) rotate(180)" fill="#f4a63d"/>
          <g id="Group_19" data-name="Group 19">
            <path id="Polygon_3" data-name="Polygon 3" d="M25.124,20.571a13,13,0,0,1,22.752,0L62.331,46.709A13,13,0,0,1,50.955,66H22.045A13,13,0,0,1,10.669,46.709Z" transform="translate(240 969) rotate(180)" fill="#d56513"/>
          </g>
        </g>
        <g id="Group_18" data-name="Group 18">
          <g id="Group_15" data-name="Group 15">
            <path id="Polygon_8" data-name="Polygon 8" d="M25.124,20.571a13,13,0,0,1,22.752,0L62.331,46.709A13,13,0,0,1,50.955,66H22.045A13,13,0,0,1,10.669,46.709Z" transform="translate(167 1002) rotate(180)" fill="#ffed67"/>
            <path id="Polygon_6" data-name="Polygon 6" d="M25.124,20.571a13,13,0,0,1,22.752,0L62.331,46.709A13,13,0,0,1,50.955,66H22.045A13,13,0,0,1,10.669,46.709Z" transform="translate(167 984) rotate(180)" fill="#f4a63d"/>
            <path id="Polygon_4" data-name="Polygon 4" d="M25.124,20.571a13,13,0,0,1,22.752,0L62.331,46.709A13,13,0,0,1,50.955,66H22.045A13,13,0,0,1,10.669,46.709Z" transform="translate(167 969) rotate(180)" fill="#d56513"/>
          </g>
          <path id="Polygon_3-2" data-name="Polygon 3" d="M31.249,9.494a6,6,0,0,1,10.5,0L68.076,57.1A6,6,0,0,1,62.825,66H10.175a6,6,0,0,1-5.251-8.9Z" transform="translate(94 853)" fill="url(#linear-gradient)"/>
        </g>
      </g>
      <path id="Polygon_10" data-name="Polygon 10" d="M31.249,9.494a6,6,0,0,1,10.5,0L68.076,57.1A6,6,0,0,1,62.825,66H10.175a6,6,0,0,1-5.251-8.9Z" transform="translate(167 853)" fill="url(#linear-gradient)"/>
    </g>
    <g id="Group_17" data-name="Group 17">
      <path id="Polygon_1" data-name="Polygon 1" d="M63.392,72.146c8.007-23.475,41.209-23.475,49.216,0l51.661,151.461A26,26,0,0,1,139.661,258H36.339a26,26,0,0,1-24.608-34.393Z" transform="translate(79 650)" fill="url(#linear-gradient-3)"/>
      <g id="Group_16" data-name="Group 16">
        <path id="Polygon_11" data-name="Polygon 11" d="M27.3,61.55c8.642-21.983,39.752-21.983,48.395,0L89.039,95.487A26,26,0,0,1,64.842,131H38.158a26,26,0,0,1-24.2-35.513Z" transform="translate(116 692)" fill="url(#linear-gradient-4)"/>
        <rect id="Rectangle_11" data-name="Rectangle 11" width="29" height="27" rx="13.5" transform="matrix(0.53, -0.848, 0.848, 0.53, 172.951, 808.634)" fill="#a9d5ca"/>
        <circle id="Ellipse_4" data-name="Ellipse 4" cx="19.5" cy="19.5" r="19.5" transform="translate(139 771)" fill="#a27e59"/>
        <g id="Polygon_13" data-name="Polygon 13" transform="translate(116 692)" fill="none">
          <path d="M27.3,61.55c8.642-21.983,39.752-21.983,48.395,0L89.039,95.487A26,26,0,0,1,64.842,131H38.158a26,26,0,0,1-24.2-35.513Z" stroke="none"/>
          <path d="M 51.49999618530273 47.06305694580078 C 46.77901077270508 47.06305694580078 42.24145126342773 48.37821960449219 38.37783813476562 50.86637878417969 C 36.3670654296875 52.16131591796875 34.57578277587891 53.75643157958984 33.05375671386719 55.60742950439453 C 31.44451904296875 57.56451416015625 30.13582611083984 59.81020355224609 29.16403961181641 62.28214263916016 L 15.82242584228516 96.21907043457031 C 14.32110595703125 100.0379638671875 13.81550598144531 103.9953384399414 14.3197021484375 107.9812850952148 C 14.79268646240234 111.7206268310547 16.17763519287109 115.3627777099609 18.32478332519531 118.5140075683594 C 20.47193908691406 121.6652450561523 23.35486602783203 124.2867279052734 26.66187286376953 126.0950469970703 C 30.18699645996094 128.0226287841797 34.05496978759766 129 38.15838623046875 129 L 64.84162139892578 129 C 68.94502258300781 129 72.81299591064453 128.0226287841797 76.33810424804688 126.0950469970703 C 79.64511871337891 124.2867279052734 82.52803802490234 121.6652450561523 84.67519378662109 118.514030456543 C 86.82235717773438 115.3628082275391 88.20729064941406 111.7206420898438 88.68029022216797 107.9813003540039 C 89.18448638916016 103.9953536987305 88.67890167236328 100.0379638671875 87.17758178710938 96.21907043457031 L 73.83595275878906 62.28214263916016 C 72.86416625976562 59.81020355224609 71.55547332763672 57.56451416015625 69.94622802734375 55.60742950439453 C 68.4241943359375 53.75643157958984 66.63291931152344 52.16131591796875 64.62214660644531 50.86637878417969 C 60.75854110717773 48.37821960449219 56.22097015380859 47.06305694580078 51.49999618530273 47.06305694580078 M 51.49999237060547 45.06306457519531 C 61.43808746337891 45.06306457519531 71.37618255615234 50.558837890625 75.69728851318359 61.55039215087891 L 89.03891754150391 95.48732757568359 C 95.74467468261719 112.5447387695312 83.16980743408203 131 64.84162139892578 131 L 38.15838623046875 131 C 19.83018493652344 131 7.255302429199219 112.5447387695312 13.96109008789062 95.48732757568359 L 27.30270385742188 61.55039215087891 C 31.62380218505859 50.558837890625 41.56189727783203 45.06306457519531 51.49999237060547 45.06306457519531 Z" stroke="none" fill="#9eb3b5"/>
        </g>
      </g>
    </g>
  </g>
</svg>
