<svg xmlns="http://www.w3.org/2000/svg" width="67.619" height="67.656" viewBox="0 0 67.619 67.656">
  <g id="Group_210" data-name="Group 210" transform="translate(-4 -3)">
    <path id="twitter-square" d="M57.728,32H6.927A6.929,6.929,0,0,0,0,38.927v50.8a6.929,6.929,0,0,0,6.927,6.927h50.8a6.929,6.929,0,0,0,6.927-6.927v-50.8A6.929,6.929,0,0,0,57.728,32ZM50.671,54.918c.029.4.029.823.029,1.227,0,12.513-9.525,26.93-26.93,26.93A26.806,26.806,0,0,1,9.237,78.832a19.942,19.942,0,0,0,2.28.115,18.977,18.977,0,0,0,11.748-4.041,9.478,9.478,0,0,1-8.847-6.567,10.2,10.2,0,0,0,4.272-.173,9.466,9.466,0,0,1-7.577-9.294v-.115a9.459,9.459,0,0,0,4.272,1.2,9.445,9.445,0,0,1-4.214-7.88A9.347,9.347,0,0,1,12.455,47.3a26.876,26.876,0,0,0,19.512,9.9,9.486,9.486,0,0,1,16.15-8.645,18.548,18.548,0,0,0,6-2.28,9.441,9.441,0,0,1-4.156,5.21,18.836,18.836,0,0,0,5.455-1.472A19.923,19.923,0,0,1,50.671,54.918Z" transform="translate(6.963 -26)" fill="#0e2d40"/>
    <path id="twitter-square-2" data-name="twitter-square" d="M53.085,28.653l-46.5,3.228A6.719,6.719,0,0,0-.129,38.6L-3.635,84.311c0,3.709,6.515,10.266,10.223,10.266H55.85a6.719,6.719,0,0,0,6.717-6.717V38.6C62.567,34.89,56.794,28.653,53.085,28.653ZM49.006,54.1c.028.392.028.8.028,1.19,0,12.133-9.236,26.114-26.114,26.114A25.994,25.994,0,0,1,8.828,77.294a19.338,19.338,0,0,0,2.211.112A18.4,18.4,0,0,0,22.43,73.487a9.191,9.191,0,0,1-8.579-6.368,9.892,9.892,0,0,0,4.142-.168,9.179,9.179,0,0,1-7.347-9.013v-.112a9.172,9.172,0,0,0,4.142,1.162A9.159,9.159,0,0,1,10.7,51.348a9.064,9.064,0,0,1,1.246-4.632,26.061,26.061,0,0,0,18.921,9.6,9.2,9.2,0,0,1,15.66-8.383,17.985,17.985,0,0,0,5.822-2.211,9.154,9.154,0,0,1-4.03,5.052,18.265,18.265,0,0,0,5.29-1.427A19.319,19.319,0,0,1,49.006,54.1Z" transform="translate(7.998 -25)" fill="#174764"/>
    <g id="Rectangle_153" data-name="Rectangle 153" transform="translate(9.121 9)" fill="#fff" stroke="#707070" stroke-width="1">
      <rect width="56" height="49" stroke="none"/>
      <rect x="0.5" y="0.5" width="55" height="48" fill="none"/>
    </g>
    <path id="twitter-square-3" data-name="twitter-square" d="M57.728,32H6.927A6.929,6.929,0,0,0,0,38.927v50.8a6.929,6.929,0,0,0,6.927,6.927h50.8a6.929,6.929,0,0,0,6.927-6.927v-50.8A6.929,6.929,0,0,0,57.728,32ZM50.671,54.918c.029.4.029.823.029,1.227,0,12.513-9.525,26.93-26.93,26.93A26.806,26.806,0,0,1,9.237,78.832a19.942,19.942,0,0,0,2.28.115,18.977,18.977,0,0,0,11.748-4.041,9.478,9.478,0,0,1-8.847-6.567,10.2,10.2,0,0,0,4.272-.173,9.466,9.466,0,0,1-7.577-9.294v-.115a9.459,9.459,0,0,0,4.272,1.2,9.445,9.445,0,0,1-4.214-7.88A9.347,9.347,0,0,1,12.455,47.3a26.876,26.876,0,0,0,19.512,9.9,9.486,9.486,0,0,1,16.15-8.645,18.548,18.548,0,0,0,6-2.28,9.441,9.441,0,0,1-4.156,5.21,18.836,18.836,0,0,0,5.455-1.472A19.923,19.923,0,0,1,50.671,54.918Z" transform="translate(4 -29)" fill="#1da1f2"/>
  </g>
</svg>
